# xmcd
#
# Track frame offsets: 
#        150
#        22733
#        38582
#        46669
#        59240
#        72717
#        85105
#        102099
#        117005
#
# Disc length: 1736 seconds
#
# Revision: 0
# Processed by: cddbd v1.5.2PL0 Copyright (c) Steve Scherf et al.
# Submitted via: ExactAudioCopy v1.0b1
#
DISCID=6c06c609
DTITLE=Ringo Starr - 2012
DYEAR=2012
DGENRE=Pop
TTITLE0=Anthem
TTITLE1=Wings
TTITLE2=Think It Over
TTITLE3=Samba
TTITLE4=Rock Island Line
TTITLE5=Step Lightly
TTITLE6=Wonderful
TTITLE7=In Liverpool
TTITLE8=Slow Down
EXTD=
EXTT0=
EXTT1=
EXTT2=
EXTT3=
EXTT4=
EXTT5=
EXTT6=
EXTT7=
EXTT8=
PLAYORDER=
